# xmcd
#
# Track frame offsets: 
#        150
#        14890
#        29131
#        39768
#        53574
#        68114
#        84325
#        100172
#        111696
#        126069
#        143518
#        161071
#        177143
#        191992
#        206062
#
# Disc length: 2965 seconds
#
# Revision: 6
# Processed by: cddbd v1.5.2PL0 Copyright (c) Steve Scherf et al.
# Submitted via: ExactAudioCopy v0.99pb4
#
DISCID=d60b930f
DTITLE=Various Artist - Superstars of Country: Party Time (1 of 2)
DYEAR=2005
DGENRE=Country
TTITLE0=Eddie Rabbitt - Drivin My Life Away
TTITLE1=The Bellamy Brothers - If I Said You Have a Beautiful Body Wou
TTITLE1=ld You Hold it Against Me?
TTITLE2=Emmylou Harris - Mister Sandman
TTITLE3=John Anderson - Swingin'
TTITLE4=The Judds - Mama He's Crazy
TTITLE5=T.G Sheppard - Party Time
TTITLE6=Johnny Lee -  Lookin' for Love
TTITLE7=Sammi Smith - Help Me Make it Through the Night
TTITLE8=Eddie Rabbitt - I Love a Rainy Night
TTITLE9=Emmylou Harris - Together Again
TTITLE10=Linda Ronstadt - Blue Bayou
TTITLE11=Billie Jo Spears - Blanket on the Ground
TTITLE12=Ray Stevens - The Streak
TTITLE13=Randy Travis - On the Other Hand
TTITLE14=Debby Boone -  You Light up My Life
EXTD=YEAR: 2005
EXTT0=
EXTT1=
EXTT2=
EXTT3=
EXTT4=
EXTT5=
EXTT6=
EXTT7=
EXTT8=
EXTT9=
EXTT10=
EXTT11=
EXTT12=
EXTT13=
EXTT14=
PLAYORDER=
